# xmcd
#
# Track frame offsets: 
#        150
#        20745
#        39178
#        50363
#        65721
#        84756
#        105865
#        124339
#        137289
#        153071
#        166030
#        180107
#        198875
#        216926
#        231190
#
# Disc length: 3323 seconds
#
# Revision: 3
# Processed by: cddbd v1.5.2PL0 Copyright (c) Steve Scherf et al.
# Submitted via: ExactAudioCopy v1.0b3
#
DISCID=ad0cf90f
DTITLE=Lisa Ono - Jambalaya -Bossa Americana-
DYEAR=2006
DGENRE=Bossa Nova
TTITLE0=Jambalaya
TTITLE1=Take Me Home Country Roads
TTITLE2=Stay All Night
TTITLE3=Saliane
TTITLE4=I'm An Old Cowhand
TTITLE5=Gentle On My Mind
TTITLE6=Crazy
TTITLE7=I've Just Seen A Face
TTITLE8=Old Fashioned - You Are My Sunshine
TTITLE9=Little Cabin Home On The Hill
TTITLE10=She Wore A Yellow Ribbon
TTITLE11=Danny Boy
TTITLE12=My Boy
TTITLE13=Fascination -Fascinacao [Album Mix Bonus Track for Japan Only
TTITLE13=]
TTITLE14=Morning Sun [Bonus Track for Japan Only]
EXTD=YEAR: 2006
EXTT0=
EXTT1=
EXTT2=
EXTT3=
EXTT4=
EXTT5=
EXTT6=
EXTT7=
EXTT8=
EXTT9=
EXTT10=
EXTT11=
EXTT12=
EXTT13=
EXTT14=
PLAYORDER=
